<?xml version="1.0" encoding="UTF-8"?>
<svg id="LettersTrace" xmlns="http://www.w3.org/2000/svg" viewBox="0 0 465.9 389.2">
  <defs>
    <style>
      .cls-1 {
        font-family: Arial-Black, Arial;
        font-size: 8.88px;
        font-weight: 800;
      }
    </style>
  </defs>
  <text class="cls-1" transform="translate(438.22 143.63)"><tspan x="0" y="0">TM</tspan></text>
  <g>
    <path d="M0,0h51.46c2.07,0,4.14.44,5.99,1.38,1.58.8,3.39,2.02,5.05,3.86,1.84,2.05,2.9,4.22,3.52,6.06.58,1.73.85,3.56.85,5.39v90.43c.3,2.44,1.05,6.06,3.06,10,2.63,5.15,6.16,8.37,8.3,10.05-3.67.13-8.88-.1-14.86-1.75-5.21-1.44-9.32-3.5-12.24-5.24,2.37,2.25,16.62,15.32,38.02,13.98,17.12-1.07,28.71-10.72,34.69-17.28,2.98-3.26,4.64-7.51,4.64-11.93V18.79c-.22-2.33-.91-6.49-3.5-10.93C122.66,3.88,119.8,1.37,117.99,0h34.09c1.56.71,3.9,2.03,6.12,4.37,1.65,1.74,2.76,3.55,3.51,5.14.86,1.83,1.3,3.83,1.3,5.86v77.71c0,7.61.26,13.73-3.5,23.16-7.02,17.62-21.83,25.72-27.53,28.84-16,8.75-30.97,8.5-42.39,8.3-13.83-.24-29.08-.25-44.57-10.05-9.69-6.12-16.21-13.97-20.52-20.85-3.75-5.99-5.7-12.93-5.7-20V25.06c0-6.37-2.41-12.54-6.88-17.08-.04-.04-.07-.07-.11-.11C7.43,3.46,2.85,1.16,0,0Z"/>
    <path d="M165,0h54.08c1.3.27,5.05,1.24,8.19,4.67.17.19.34.38.5.57,2.29,2.76,3.43,6.3,3.43,9.89v117.06c0,2.86.65,5.7,2.01,8.22.52.97,1.16,1.98,1.93,3.01,2.19,2.92,4.6,4.74,6.23,5.79h-45.13c-2.95,0-5.84-.92-8.21-2.69-1.03-.77-2.08-1.73-3.05-2.93-4.12-5.06-4.01-10.77-3.93-12.24V31.31c0-3.85-.54-7.7-1.72-11.37-.86-2.67-2.12-5.63-3.98-8.66C171.87,5.63,167.73,2.03,165,0Z"/>
    <path d="M233.89,0h39.54c3.17,0,6.32.79,9.04,2.42.91.54,1.84,1.19,2.76,1.97,4.74,3.99,6.42,8.91,6.99,10.93,8.38,25.71,16.75,51.42,25.13,77.13,8.16-24.33,16.31-48.65,24.47-72.98.48-1.46,1.75-5.91,0-11.14C340.28,3.65,337.19.98,335.94,0h33.94c1.36,0,2.71.17,4.01.56,2.03.61,4.68,1.73,7.28,3.83,4.64,3.74,6.39,8.38,6.99,10.27,8.45,25.93,16.9,51.86,25.35,77.79,8.38-24.91,16.75-49.82,25.13-74.73.33-1.68.92-5.95-1.09-10.71C435.99,3.35,433.61,1.09,432.3,0h19.58c2.47,0,4.9.7,6.92,2.11,1.51,1.05,3.07,2.5,4.31,4.47,2.48,3.94,2.96,7.99,2.76,11.8-.27,5.13-1.84,9.7-2.1,10.49-2.84,8.5-15.56,47.51-33.21,100.95-1.02,2.45-2.13,6.09-1.97,10.27.1,2.62.66,4.24.87,4.81.76,2.03,1.85,3.49,2.62,4.37h-32.08c-3.14,0-6.24-.73-9.02-2.19-1.46-.77-3.02-1.76-4.56-3.05-5.2-4.35-7.25-9.79-8.3-12.67-3.62-9.94-11.7-34.93-21.41-68.61-7.65,23.02-15.3,46.03-22.94,69.05-.63,1.53-1.65,4.6-1.31,8.52.38,4.46,2.31,7.59,3.28,8.96h-34.98c-4.49,0-7.69-2.18-10.23-4.56-5.24-5-6.94-10.57-8.11-14.45-10.53-34.88-32.72-104.58-32.72-104.58,0,0-2.73-8.41-7.05-15.35C239.8,5.63,236.47,2.51,233.89,0Z"/>
    <path d="M48.66,160.43c7.48-.27,116.35,0,116.35,0,5.16,0,8.55.61,11.8,1.31,2.38.55,9.46,2.38,16.72,7.21,13.69,9.13,18.78,22.86,20.32,27.2,3.62,10.19,3.31,18.5,2.95,27.86-.31,8.16-.87,19.79-7.21,32.78-3.71,7.61-8.17,13.15-11.47,16.72,4.22,3.66,11.55,11.01,16.39,22.62,4.9,11.75,4.73,21.81,4.59,26.88-.14,5.2-1.12,19.26-9.18,33.1-15.27,26.24-44.62,32.19-49.49,33.1H47.35c8.09-15.4,16.17-30.81,24.26-46.21h63.26c10.38.59,19.81-3.06,23.93-10.16,2.2-3.79,2.5-7.91,2.62-9.5.19-2.58.73-9.78-4.26-16.06-2.92-3.68-6.58-5.58-9.37-6.57-1.89-.67-3.89-.97-5.89-.97h-41.8c-3.96,0-7.34.21-11.77-2.95-2.51-2.03-3.81-4.51-4.5-6.49-.52-1.51-.75-3.1-.75-4.69v-36.67h67.53c1.79,0,3.54-.56,4.94-1.68.74-.59,1.52-1.33,2.26-2.26,1.88-2.37,2.68-4.51,3.07-6.87.66-4.26,1-7.44.65-11.16-.44-4.68-1.1-7.02-2.4-9.83-2.09-4.5-5.34-7.03-6.88-8.19-2.19-1.66-4.41-2.76-6.43-3.5-2.65-.97-5.46-1.42-8.29-1.42h-65.91c-7.65-14.53-15.29-29.06-22.94-43.59Z"/>
    <path d="M235.3,363.09c.02,13.9,11.29,25.16,25.19,25.16h75.55c7.36.12,17.68-.28,29.72-2.62,12.78-2.49,32.87-6.39,52-21.85,17.37-14.03,25.14-30.47,28.41-37.58,9.84-21.43,10.05-40.19,10.05-52.44,0-13.84,0-33.09-10.93-54.63-3.62-7.13-13.67-24.82-34.09-38.46-15.88-10.61-30.61-13.8-41.52-16.17-16.44-3.57-30.52-3.65-40.2-3.06-41.08-.29-82.16-.58-123.24-.87,3.79,1.37,14.39,5.75,21.85,17.04,5.33,8.07,6.62,15.96,6.99,20.08l.2,165.39ZM389.17,324.94c-4.17,8.16-9.46,14.64-18.92,21.91-12.56,9.65-25.72,11.3-33.21,12.24-18.86,2.36-33.27-2.72-37.58-4.37-11.12-4.27-18.97-10.28-23.6-14.42,4.28,2.05,9.87,4.23,16.61,5.68,9.53,2.06,17.77,1.9,23.6,1.31-2.7-2.95-6.72-8.05-9.18-15.3-2.01-5.93-2.14-10.85-2.19-13.11-.22-11.66-.18-56.15.44-116.68,30.15,0,39.99,0,51.13,2.62,10.81,2.54,21.87,4.92,29.9,14.29,11.55,13.46,14.92,26.53,15.34,43.81.74,30.2-3.51,44.72-12.34,62.02Z"/>
  </g>
</svg>